# Blender v2.93.0 OBJ File: ''
# www.blender.org
mtllib wall_tall.mtl
o Cube.001
v 32.000000 31.999998 51.422287
v 0.000000 31.999998 51.422287
v 0.000000 -0.000002 51.422287
v 32.000000 -0.000002 51.422287
v 32.000000 0.000000 0.000000
v 0.000000 0.000000 0.000000
v 0.000000 32.000000 0.000001
v 32.000000 32.000000 0.000001
vt 0.701068 0.434652
vt 0.991754 0.434652
vt 0.991754 0.966539
vt 0.701068 0.966539
vt 0.027434 0.192629
vt 0.661421 0.192629
vt 0.661421 0.826617
vt 0.027434 0.826617
vt 0.016213 0.160337
vt 0.659494 0.160337
vt 0.659494 0.803618
vt 0.016213 0.803618
vt 0.125000 0.500000
vt 0.375000 0.500000
vt 0.375000 0.750000
vt 0.125000 0.750000
vt 0.045316 0.076096
vt 0.639156 0.076096
vt 0.639156 0.627938
vt 0.045316 0.627938
vt 0.021339 0.050269
vt 0.645603 0.050269
vt 0.645603 0.674533
vt 0.021339 0.674533
vn 0.0000 0.0000 1.0000
vn 0.0000 -1.0000 -0.0000
vn -1.0000 0.0000 0.0000
vn 0.0000 0.0000 -1.0000
vn 1.0000 0.0000 0.0000
vn 0.0000 1.0000 0.0000
usemtl Material.001
s 1
f 1/1/1 2/2/1 3/3/1 4/4/1
f 5/5/2 4/6/2 3/7/2 6/8/2
f 6/9/3 3/10/3 2/11/3 7/12/3
f 7/13/4 8/14/4 5/15/4 6/16/4
f 8/17/5 1/18/5 4/19/5 5/20/5
f 7/21/6 2/22/6 1/23/6 8/24/6
